<?xml version="1.0" encoding="UTF-8"?>
<svg width="180px" height="183px" viewBox="0 0 180 183" version="1.1" xmlns="http://www.w3.org/2000/svg" xmlns:xlink="http://www.w3.org/1999/xlink">
    <title>icon@1x</title>
    <defs>
        <linearGradient x1="0%" y1="0%" x2="100%" y2="100%" id="linearGradient-1">
            <stop stop-color="#009CE5" offset="0%"></stop>
            <stop stop-color="#4953CF" offset="100%"></stop>
        </linearGradient>
        <path d="M120.435726,41.8359375 C130.45661,41.8359375 137.454933,51.7327255 134.08413,61.1400141 L112.01988,122.71459 C108.736137,131.881578 100.023393,138.000321 90.2592251,138.000321 L90.2569928,138.000321 C80.5196131,138.000321 71.8291916,131.914953 68.5231257,122.785789 L46.2244817,61.1845141 C42.8157292,51.7683255 49.8140522,41.8359375 59.8550274,41.8359375 L60.1898754,41.8359375 C66.864512,41.8359375 72.6730085,46.379382 74.2646526,52.8385492 L90.1476091,106.625634 L106.345323,52.9008491 C107.914644,46.410532 113.738766,41.8359375 120.435726,41.8359375 Z" id="path-2"></path>
        <filter x="-58.6%" y="-39.0%" width="217.2%" height="209.2%" filterUnits="objectBoundingBox" id="filter-3">
            <feOffset dx="0" dy="15" in="SourceAlpha" result="shadowOffsetOuter1"></feOffset>
            <feGaussianBlur stdDeviation="15" in="shadowOffsetOuter1" result="shadowBlurOuter1"></feGaussianBlur>
            <feColorMatrix values="0 0 0 0 0.0580664075   0 0 0 0 0.0774342211   0 0 0 0 0.317595109  0 0 0 0.2 0" type="matrix" in="shadowBlurOuter1"></feColorMatrix>
        </filter>
    </defs>
    <g id="Brand-Guide" stroke="none" stroke-width="1" fill="none" fill-rule="evenodd">
        <g id="01" transform="translate(-1180.000000, -740.000000)">
            <g id="icon" transform="translate(1180.000000, 740.000000)">
                <rect id="Rectangle" fill="url(#linearGradient-1)" x="2.27373675e-13" y="-1.13686838e-13" width="180" height="180" rx="40"></rect>
                <g id="Path">
                    <use fill="black" fill-opacity="1" filter="url(#filter-3)" xlink:href="#path-2"></use>
                    <use fill="#FFFFFF" fill-rule="evenodd" xlink:href="#path-2"></use>
                </g>
            </g>
        </g>
    </g>
</svg>